<?xml version="1.0" standalone="no"?>
<!DOCTYPE svg PUBLIC "-//W3C//DTD SVG 20010904//EN"
 "http://www.w3.org/TR/2001/REC-SVG-20010904/DTD/svg10.dtd">
<svg version="1.0" xmlns="http://www.w3.org/2000/svg"
 width="1112.000000pt" height="1579.000000pt" viewBox="0 0 1112.000000 1579.000000"
 preserveAspectRatio="xMidYMid meet">
<metadata>
Created by potrace 1.15, written by Peter Selinger 2001-2017
</metadata>
<g transform="translate(0.000000,1579.000000) scale(0.100000,-0.100000)"
fill="#000000" stroke="none">
<path d="M0 15640 l0 -150 5560 0 5560 0 0 150 0 150 -5560 0 -5560 0 0 -150z
m10946 66 c3 -8 13 -12 26 -8 18 4 20 2 16 -16 -4 -14 0 -26 10 -32 15 -9 15
-11 2 -22 -9 -7 -14 -21 -12 -31 3 -14 -1 -18 -15 -15 -10 2 -24 -3 -31 -12
-11 -13 -13 -13 -22 2 -6 10 -18 14 -31 11 -17 -5 -20 -2 -17 13 2 10 -3 25
-12 32 -13 11 -13 13 2 22 10 6 14 18 10 32 -4 18 -2 20 16 16 13 -4 23 0 26
8 3 8 10 14 16 14 6 0 13 -6 16 -14z"/>
<path d="M7214 15277 c-2 -7 -3 -71 -2 -143 l3 -129 345 0 345 0 0 140 0 140
-343 3 c-276 2 -344 0 -348 -11z m684 -129 l-3 -133 -335 0 -335 0 -3 133 -3
132 341 0 341 0 -3 -132z"/>
<path d="M449 15192 c-48 -40 -17 -122 46 -122 40 0 68 30 68 72 0 36 -32 68
-68 68 -13 0 -33 -8 -46 -18z"/>
<path d="M777 15199 c-45 -26 -40 -99 9 -121 20 -9 30 -9 45 0 17 11 19 9 19
-13 0 -35 -34 -51 -66 -30 -19 12 -24 13 -24 2 0 -21 46 -38 74 -27 31 11 46
57 46 136 0 50 -3 64 -15 64 -8 0 -15 -5 -15 -12 0 -9 -3 -9 -12 0 -15 15 -37
15 -61 1z"/>
<path d="M1870 14195 c0 -13 37 -15 270 -15 233 0 270 2 270 15 0 13 -37 15
-270 15 -233 0 -270 -2 -270 -15z"/>
<path d="M8135 13653 c-21 -5 -94 -81 -95 -98 0 -16 -93 -115 -107 -115 -7 0
-13 4 -13 9 0 5 -11 11 -25 13 -21 4 -32 -3 -58 -36 -17 -22 -39 -48 -47 -57
-73 -77 -123 -146 -135 -186 -5 -18 -3 -22 10 -17 10 4 25 -4 40 -20 36 -39
94 -33 198 21 l47 24 0 -50 c0 -38 5 -56 20 -71 24 -24 26 -65 4 -74 -12 -5
-15 -18 -12 -59 3 -45 1 -52 -15 -49 -33 6 -40 -41 -28 -188 15 -191 9 -180
93 -180 65 0 70 1 65 20 -3 11 -2 18 3 15 11 -7 21 38 11 48 -7 7 -1 59 14
125 3 13 13 22 23 22 14 0 21 -14 31 -64 7 -35 12 -77 11 -92 -5 -74 -5 -74
60 -74 33 0 60 4 60 10 0 6 -5 10 -11 10 -6 0 -9 6 -6 14 3 8 -1 20 -9 26 -16
14 -19 51 -5 65 19 20 10 102 -10 89 -5 -3 -9 1 -9 8 0 15 53 68 69 68 15 0
32 36 25 55 -5 11 -10 13 -19 5 -19 -16 -25 -1 -29 70 -3 45 -9 65 -23 75 -17
13 -17 15 10 40 15 14 28 31 28 38 5 50 10 81 14 85 3 3 5 -4 5 -15 0 -26 26
-90 51 -125 12 -16 16 -29 9 -33 -14 -9 -12 -53 5 -103 l15 -42 -33 -29 -32
-30 19 -33 c23 -39 34 -48 62 -48 36 0 45 20 18 45 -33 31 -28 104 9 105 4 0
7 -9 7 -20 0 -11 5 -20 11 -20 7 0 8 7 3 18 -8 18 -7 112 1 120 3 3 14 -3 25
-13 18 -16 20 -16 20 -2 0 10 -7 17 -15 17 -8 0 -15 4 -15 9 0 5 -9 7 -19 4
-16 -4 -19 -1 -14 17 3 12 12 24 19 27 20 8 17 30 -8 55 -14 14 -19 16 -15 6
9 -25 -19 -29 -31 -5 -16 35 -34 108 -28 115 3 3 6 0 6 -6 0 -7 7 -12 15 -12
15 0 20 -16 17 -53 -1 -10 3 -15 8 -12 16 10 12 26 -25 104 -37 76 -42 101
-24 101 8 0 8 5 -1 15 -9 11 -16 12 -25 5 -8 -7 -22 -5 -44 6 -32 16 -38 39
-10 39 8 0 15 10 17 23 3 18 -1 22 -26 22 -21 0 -31 -6 -35 -20 -3 -14 -14
-20 -31 -20 -14 0 -26 5 -26 11 0 5 4 8 9 5 21 -13 30 22 24 91 -5 61 -9 73
-29 84 -13 7 -21 15 -18 18 5 6 9 7 35 10 6 0 9 9 7 19 -3 13 -11 16 -37 14
-22 -3 -31 0 -27 7 7 11 4 12 -29 4z"/>
<path d="M1917 13467 c-60 -7 -77 -13 -73 -23 4 -10 -3 -14 -20 -14 -35 0
-182 -72 -219 -107 -16 -16 -43 -44 -58 -62 -22 -25 -34 -31 -52 -27 -30 8
-38 -5 -20 -31 9 -12 23 -19 37 -18 13 1 33 3 44 4 14 1 24 10 28 25 7 27 57
84 101 114 48 32 182 70 270 76 256 17 472 -54 521 -171 17 -40 18 -95 2 -111
-8 -8 -8 -15 0 -25 7 -8 10 -16 7 -18 -2 -3 12 -3 31 -1 34 4 34 5 18 23 -16
18 -16 19 8 19 14 0 29 -7 32 -16 8 -22 8 -26 -4 -19 -5 3 -10 1 -10 -4 0 -6
-7 -11 -16 -11 -8 0 -12 -4 -9 -10 3 -5 -1 -10 -9 -10 -9 0 -16 4 -16 9 0 5
-16 8 -35 7 -20 -2 -38 1 -41 5 -3 5 2 9 10 9 9 0 16 5 16 10 0 15 -7 12 -40
-12 -16 -11 -26 -26 -23 -31 3 -6 1 -7 -5 -4 -16 11 -44 -4 -38 -20 5 -11 2
-11 -15 -2 -13 7 -19 7 -15 1 3 -6 2 -13 -4 -17 -15 -9 -12 -52 4 -58 10 -4
13 -1 9 9 -6 17 13 19 21 2 5 -10 7 -10 12 0 3 6 12 12 20 12 8 0 14 7 14 17
0 14 2 14 20 -2 18 -16 20 -16 20 -2 0 10 5 17 10 17 6 0 10 -4 10 -10 0 -18
16 -10 57 28 22 22 48 42 57 45 9 4 24 23 32 42 8 19 19 35 24 35 5 0 12 11
16 25 6 23 11 25 65 25 33 0 59 4 59 10 0 6 -24 10 -52 10 -62 0 -70 4 -91 46
-20 38 -80 99 -127 129 -47 30 -195 71 -300 83 -104 13 -181 12 -283 -1z"/>
<path d="M4105 13460 c-27 -5 -51 -14 -53 -20 -2 -5 -9 -10 -16 -10 -6 0 -43
-15 -81 -34 -68 -32 -112 -67 -142 -113 -11 -16 -25 -23 -49 -23 -32 0 -33 -1
-22 -25 9 -21 18 -25 53 -25 38 0 42 3 53 35 16 42 60 80 132 114 53 25 62 26
240 26 171 0 189 -2 244 -24 110 -44 156 -110 131 -185 l-13 -38 24 23 c17 16
24 18 24 8 0 -12 2 -12 9 0 7 11 10 10 15 -6 4 -11 3 -29 0 -39 -4 -10 6 -2
22 18 29 37 44 47 44 28 0 -6 -7 -13 -15 -16 -8 -4 -15 -12 -15 -20 0 -7 -10
-20 -22 -28 -12 -9 -17 -16 -11 -16 15 0 63 58 78 95 12 27 16 29 59 26 36 -2
46 1 46 13 0 11 -13 16 -47 18 -44 3 -49 6 -73 47 -33 58 -114 113 -215 147
-68 22 -101 27 -215 30 -74 1 -157 -1 -185 -6z"/>
<path d="M4118 13347 c-19 -7 -28 -18 -28 -34 0 -13 5 -23 10 -23 6 0 10 5 10
10 0 6 35 10 85 10 47 0 85 -4 85 -9 0 -6 -13 -18 -30 -28 -16 -9 -30 -20 -30
-24 0 -3 25 -9 56 -12 54 -6 109 -30 100 -45 -2 -4 10 -7 27 -7 68 0 29 46
-58 69 l-46 11 29 28 c16 15 39 29 51 30 32 2 25 17 -8 17 -17 0 -33 5 -36 10
-8 13 -182 11 -217 -3z"/>
<path d="M1923 13333 c-3 -7 -14 -13 -24 -13 -12 0 -19 -7 -19 -19 0 -18 2
-18 28 -5 20 10 58 13 125 11 54 -1 97 -4 96 -7 0 -3 -21 -22 -45 -42 -25 -21
-39 -38 -32 -38 8 0 19 5 26 12 9 9 12 9 12 0 0 -7 11 -12 25 -12 15 0 38 -6
53 -14 32 -17 80 -66 65 -66 -6 0 -14 6 -16 13 -3 6 -6 2 -6 -10 -1 -12 -11
-29 -23 -39 -20 -15 -21 -16 -3 -10 18 6 19 5 3 -7 -10 -8 -15 -17 -11 -20 11
-11 48 -8 61 5 13 13 16 29 5 27 -34 -6 -46 15 -13 24 10 3 18 0 17 -5 -4 -21
22 -18 34 3 8 16 9 24 1 27 -6 2 -8 10 -6 17 8 21 -51 53 -113 61 l-54 6 46
45 c28 28 51 43 60 39 8 -3 15 -1 15 4 0 6 -13 10 -29 10 -17 0 -32 4 -35 9
-3 5 -58 8 -122 8 -86 -1 -117 -4 -121 -14z"/>
<path d="M1940 11555 c-7 -8 -16 -15 -21 -15 -13 0 -88 -83 -89 -97 0 -7 -5
-13 -11 -13 -7 0 -8 11 -4 30 6 29 -9 44 -17 18 -2 -6 -10 -8 -17 -4 -7 5 -10
14 -7 22 3 7 0 16 -6 20 -7 4 -8 3 -4 -4 4 -7 2 -12 -4 -12 -7 0 -14 9 -17 20
-7 25 -35 25 -89 1 -51 -23 -54 -28 -55 -88 -1 -26 -3 -65 -6 -86 -5 -36 -7
-38 -33 -32 -19 4 -37 1 -54 -10 -26 -17 -52 -77 -41 -95 4 -6 8 -45 9 -87 2
-65 5 -77 21 -84 26 -10 104 -10 130 0 33 13 58 2 50 -23 -8 -24 -14 -79 -19
-186 -3 -78 -41 -190 -61 -183 -29 9 -41 -140 -13 -158 14 -9 -2 -189 -17
-189 -12 0 -35 -41 -35 -65 0 -7 -10 -22 -23 -32 -33 -27 -56 -68 -51 -89 10
-38 164 -54 164 -17 0 8 15 20 33 28 55 23 61 37 48 103 -13 62 -7 106 27 199
12 33 22 49 28 43 16 -16 107 -30 121 -18 19 15 137 -45 151 -78 7 -14 12 -49
12 -79 0 -44 4 -57 23 -70 21 -15 23 -14 44 10 13 14 25 38 29 53 3 15 17 53
32 85 22 50 24 60 12 67 -8 6 -21 10 -29 10 -7 0 -11 6 -7 15 6 17 -19 21 -29
5 -10 -16 -25 -12 -19 5 4 10 0 15 -15 15 -12 0 -21 4 -21 9 0 5 -13 12 -29
16 -15 3 -34 17 -41 30 -14 27 -86 51 -125 41 -25 -6 -25 -6 -25 55 0 61 1 62
60 129 45 51 60 75 60 98 0 17 -4 34 -10 37 -5 3 -10 24 -10 46 0 22 -4 49
-10 59 -7 13 -4 31 11 67 27 60 26 59 46 41 39 -33 111 -66 156 -73 41 -6 53
-4 77 14 16 11 35 21 42 21 17 1 62 41 71 63 4 10 1 32 -7 50 -15 35 -56 78
-56 58 0 -7 -5 -9 -10 -6 -18 11 1 25 26 19 14 -4 24 -2 24 5 0 6 7 11 15 11
8 0 15 5 15 11 0 6 -9 8 -20 4 -23 -7 -25 -2 -10 26 10 17 7 19 -23 19 -19 0
-40 -7 -47 -15 -7 -8 -27 -15 -46 -15 -37 0 -48 -11 -39 -41 4 -12 12 -18 21
-15 19 7 -15 -41 -34 -49 -17 -7 -52 12 -74 39 -9 11 -20 21 -25 22 -4 0 -20
4 -35 8 -25 7 -28 12 -26 50 0 22 12 70 25 106 23 63 23 65 6 89 -10 13 -28
30 -39 38 -18 12 -23 11 -34 -2z"/>
<path d="M8395 11560 c-4 -6 8 -25 27 -42 31 -29 32 -31 13 -38 -11 -4 -27 -4
-36 1 -9 5 -39 2 -70 -6 l-54 -14 25 19 c24 18 24 20 8 36 -13 13 -42 19 -110
24 -85 6 -95 5 -119 -14 -14 -12 -32 -34 -41 -51 -12 -24 -20 -29 -44 -27 -42
4 -123 -34 -128 -61 -15 -72 -14 -78 18 -110 17 -18 37 -45 45 -60 8 -15 17
-24 20 -19 3 5 21 15 39 23 17 8 32 19 32 25 0 13 29 28 48 25 8 -1 12 11 11
36 0 36 -1 37 -11 13 -7 -18 -12 -21 -15 -10 -2 8 -7 22 -10 30 -4 8 -5 22 -4
30 1 11 0 12 -7 3 -6 -10 -12 -10 -27 1 -18 13 -18 14 3 25 14 8 22 8 22 1 0
-5 3 -9 8 -9 22 4 32 -3 32 -23 0 -17 3 -19 9 -9 6 10 11 4 16 -20 8 -37 21
-56 138 -202 43 -55 77 -101 74 -103 -4 -4 -91 68 -154 128 -38 35 -63 34 -76
-5 -9 -27 1 -55 10 -29 6 17 41 -5 108 -69 28 -27 59 -55 70 -63 40 -30 3 -15
-83 34 l-87 50 -3 -52 c-2 -34 -9 -56 -20 -64 -11 -8 -16 -28 -17 -69 0 -46
-4 -60 -19 -69 -62 -36 -76 -61 -121 -209 -18 -58 -37 -95 -75 -141 -27 -35
-50 -67 -50 -72 0 -4 -8 -17 -19 -28 -10 -12 -27 -34 -37 -51 -18 -27 -18 -29
-1 -22 15 6 16 4 7 -13 -6 -11 -19 -24 -30 -30 -26 -14 -70 -84 -70 -111 0
-25 22 -49 47 -49 10 0 33 14 51 30 18 17 41 30 50 30 9 0 30 -13 45 -30 35
-36 50 -38 75 -5 16 20 18 31 10 67 -22 104 -21 121 9 179 17 33 55 80 96 119
72 67 138 167 156 236 18 69 46 68 105 -1 30 -37 43 -45 71 -45 62 0 65 -4 65
-94 -1 -51 -6 -90 -15 -106 -8 -14 -14 -43 -15 -65 0 -48 43 -107 93 -129 40
-17 68 -43 87 -81 9 -17 31 -38 50 -47 200 -100 247 -109 265 -51 5 18 17 36
27 39 18 5 24 38 12 69 -7 18 -84 55 -114 55 -11 0 -31 5 -45 12 -21 9 -25 16
-20 38 5 22 1 29 -20 38 -14 7 -34 12 -45 12 -10 0 -46 23 -80 51 -69 57 -69
57 -25 165 22 54 32 63 60 53 14 -5 16 10 9 57 -3 22 -4 52 -2 65 2 19 10 9
40 -51 20 -41 44 -99 53 -127 17 -51 35 -63 35 -22 0 10 4 19 8 19 19 0 61
-58 72 -97 12 -48 27 -55 36 -18 9 37 -3 90 -26 110 -12 11 -20 31 -20 50 0
18 -9 44 -21 59 -14 18 -18 30 -11 39 22 28 -64 242 -98 242 -15 0 -17 18 -12
163 2 48 4 53 22 47 29 -9 42 2 28 24 -15 25 16 71 48 71 20 0 24 5 24 28 0
38 -17 94 -35 117 -16 19 -16 19 -6 -2 19 -38 11 -50 -8 -13 -11 19 -17 39
-14 44 4 5 1 6 -4 3 -6 -4 -17 1 -24 10 -12 14 -12 16 1 8 11 -6 12 -5 4 4
-10 11 -169 71 -188 71 -19 0 9 -17 73 -44 77 -32 122 -68 111 -86 -6 -10 -16
-7 -40 14 -22 18 -39 25 -54 21 -16 -5 -18 -4 -6 4 12 8 10 12 -11 20 -20 7
-177 81 -211 99 -3 2 -9 -2 -13 -8z m121 -555 c9 -13 25 -27 35 -30 26 -9 50
-47 59 -95 10 -56 -2 -68 -36 -36 -16 15 -57 43 -92 62 -35 20 -66 42 -68 49
-6 15 53 74 73 75 7 0 20 -11 29 -25z"/>
<path d="M6275 11453 c-5 -10 -7 -28 -6 -40 3 -25 -14 -39 -22 -19 -9 22 -60
5 -73 -25 -7 -13 -14 -55 -17 -94 -5 -57 -3 -73 11 -88 16 -18 15 -21 -39 -71
-90 -82 -93 -90 -96 -249 -2 -129 -4 -139 -27 -170 -14 -18 -35 -61 -48 -95
-13 -38 -29 -64 -40 -68 -27 -8 -50 -47 -172 -292 -19 -38 -41 -68 -56 -75
-21 -10 -99 -134 -100 -159 0 -5 35 -8 78 -8 75 0 79 1 90 25 7 14 12 31 12
36 0 6 16 35 36 64 19 30 37 67 38 82 3 25 8 28 41 30 21 1 41 7 45 13 4 6 13
10 21 8 8 -2 14 6 15 19 5 79 63 194 121 243 17 14 44 55 61 91 29 60 34 66
57 61 14 -2 25 -5 25 -6 0 -1 -13 -29 -30 -61 -17 -34 -30 -74 -30 -95 0 -25
-7 -43 -21 -56 -35 -31 -130 -184 -123 -196 4 -6 3 -8 -3 -5 -12 8 -23 -14
-28 -55 -2 -15 -12 -44 -23 -65 -26 -51 -35 -100 -19 -107 7 -2 4 -5 -5 -5
-10 -1 -18 -5 -18 -11 0 -6 50 -10 130 -10 l130 0 27 43 c58 88 115 162 131
168 32 12 70 -18 82 -64 6 -23 19 -66 28 -94 l17 -53 123 0 c71 0 122 4 122
10 0 13 -39 48 -62 56 -10 3 -18 10 -18 16 0 5 7 8 15 4 9 -3 15 0 15 10 0 8
-5 12 -11 8 -8 -4 -7 0 1 15 6 12 8 31 4 43 -4 15 -3 18 6 13 10 -6 12 2 6 36
-9 60 -46 171 -63 187 -7 7 -13 21 -13 31 0 10 -9 26 -20 36 -21 19 -26 50
-10 60 5 3 1 14 -10 25 -27 27 -25 40 5 40 24 0 25 3 24 53 -2 40 4 63 25 100
15 26 32 47 38 47 5 0 35 -18 66 -40 31 -22 61 -39 67 -36 8 3 10 -5 7 -21 -3
-14 -1 -23 4 -20 5 3 10 -5 10 -16 1 -12 5 -32 9 -44 5 -16 2 -23 -14 -28 -11
-3 -23 -16 -27 -28 -4 -12 -15 -33 -25 -46 -44 -56 -9 -70 40 -16 50 56 82 46
51 -16 -35 -68 -17 -84 25 -22 29 44 33 25 5 -32 -11 -22 -19 -46 -20 -52 0
-16 16 -17 26 -2 4 8 9 7 14 -2 13 -20 59 16 81 64 19 44 26 113 9 102 -10 -6
-50 29 -50 43 0 5 -12 15 -26 22 -24 14 -25 14 -5 22 12 4 27 6 34 4 6 -1 9
-1 5 1 -3 2 -2 18 4 34 7 22 7 34 0 41 -8 8 -9 5 -5 -11 3 -13 1 -21 -7 -21
-7 0 -10 -7 -6 -16 4 -10 1 -14 -6 -11 -8 2 -12 19 -11 41 2 22 -1 34 -7 31
-9 -5 -5 16 7 37 2 5 22 -1 44 -12 34 -18 39 -25 41 -58 1 -36 1 -36 5 -5 4
34 -11 73 -28 73 -18 0 -59 37 -51 45 4 5 -1 5 -10 2 -10 -4 -18 -2 -18 3 0 6
9 10 20 10 11 0 20 5 20 11 0 5 -4 8 -9 5 -15 -10 -59 11 -65 31 -3 10 -16 23
-28 28 -13 6 -23 15 -23 22 0 14 -12 26 -29 29 -13 2 -66 33 -66 39 0 2 10 1
23 -2 22 -5 22 -5 2 10 -15 12 -24 13 -35 4 -12 -9 -13 -8 -4 2 29 32 -12 72
-106 103 l-55 18 45 -4 c25 -2 58 -8 73 -15 37 -14 57 -14 57 2 0 21 -17 40
-29 33 -6 -4 -9 -2 -6 6 3 7 -4 24 -15 38 -11 14 -20 19 -20 12 0 -7 -4 -10
-10 -7 -6 3 -7 -1 -4 -9 4 -11 0 -16 -11 -16 -9 0 -14 -4 -11 -9 3 -5 -1 -12
-10 -15 -13 -5 -15 -2 -11 13 3 12 -1 22 -10 25 -10 4 -13 12 -8 24 11 25 6
75 -8 84 -25 16 -48 8 -60 -22 l-13 -30 -12 45 c-15 56 -15 75 -1 55 8 -13 10
-12 7 4 -2 11 -19 28 -38 39 -19 10 -36 23 -38 28 -2 5 -12 9 -23 9 -11 0 -19
6 -18 13 6 48 -1 57 -40 57 -27 0 -41 -5 -46 -17z"/>
<path d="M4325 11293 c-4 -21 -11 -53 -17 -72 l-10 -34 -107 6 c-58 4 -167 10
-241 13 l-135 7 -1 -89 0 -89 -32 -3 -32 -3 0 -454 0 -455 26 -6 c25 -6 195 0
289 11 37 4 332 25 399 29 16 1 31 7 34 14 2 6 18 12 36 12 25 0 32 4 33 20 2
18 -4 20 -63 20 -48 0 -64 -3 -64 -14 0 -8 6 -16 13 -19 6 -2 9 -7 6 -11 -4
-4 -13 -1 -20 6 -8 8 -34 14 -59 15 -79 1 -91 3 -85 13 3 5 -5 15 -19 21 -14
7 -23 16 -20 21 3 5 0 15 -6 23 -15 18 -9 19 24 3 14 -6 28 -20 32 -30 3 -11
7 -18 9 -16 10 9 -37 163 -69 228 -20 41 -30 66 -21 56 8 -11 15 -25 15 -30 1
-22 40 37 40 60 0 24 15 33 22 14 2 -5 25 1 51 14 45 23 46 25 20 28 -20 2
-29 9 -31 24 -2 17 4 23 28 28 18 3 29 10 25 16 -4 7 2 9 19 4 20 -5 26 -2 26
10 0 9 3 16 8 17 4 0 29 2 56 4 61 3 75 20 78 89 1 38 3 30 8 -34 4 -51 6 12
6 162 l-1 247 -65 7 c-36 4 -71 8 -79 8 -8 1 -16 7 -19 15 -2 8 0 11 5 8 6 -4
8 4 5 20 -5 26 -5 26 -16 -8 -6 -19 -17 -34 -23 -33 -7 1 -22 2 -34 3 -11 0
-18 5 -15 10 3 5 12 36 20 70 11 46 11 61 2 61 -6 0 -12 -10 -13 -22 -3 -35
-25 -108 -35 -114 -9 -6 -2 64 12 109 5 16 5 27 0 27 -5 0 -12 -17 -15 -37z"/>
<path d="M1875 8924 c-20 -6 -39 -15 -42 -18 -10 -9 -10 -90 -1 -102 5 -6 -11
-18 -42 -32 -32 -14 -55 -32 -64 -51 -9 -16 -23 -31 -32 -35 -13 -5 -16 -16
-12 -51 4 -33 2 -45 -8 -45 -13 0 -25 -45 -22 -90 0 -14 -3 -51 -7 -82 -10
-71 -1 -108 25 -108 11 0 20 -5 20 -11 0 -6 8 -1 19 12 15 18 17 29 9 50 -5
15 -16 30 -24 33 -8 3 -14 11 -14 17 0 9 4 8 14 0 11 -10 15 -8 18 6 2 10 -1
26 -6 35 -8 14 -5 22 12 39 13 12 22 30 20 42 -3 25 8 47 23 47 17 0 30 -50
18 -71 -5 -11 -11 -43 -11 -72 -1 -29 -7 -69 -15 -91 -7 -21 -13 -58 -13 -81
0 -53 -16 -102 -47 -138 -12 -16 -25 -38 -27 -50 -3 -12 -12 -51 -21 -87 -15
-60 -32 -147 -38 -194 -3 -25 38 -47 67 -37 15 6 22 18 24 42 1 19 7 43 12 54
4 11 11 34 15 50 9 42 61 178 96 251 32 67 35 79 17 68 -7 -4 -10 -4 -6 1 4 4
0 14 -10 21 -9 7 -14 16 -10 20 5 4 16 0 26 -9 18 -16 20 -14 42 33 13 27 27
50 30 50 10 0 31 -51 34 -82 2 -13 8 -33 14 -44 16 -30 32 -105 21 -98 -12 7
-11 -59 1 -92 6 -15 11 -57 11 -94 l1 -68 61 -22 c34 -12 73 -23 87 -24 39 -2
37 30 -3 73 -45 47 -54 81 -62 220 -3 63 -10 123 -16 133 -5 10 -7 18 -4 18 4
0 -1 7 -10 17 -15 15 -16 27 -4 73 2 8 -2 14 -8 13 -7 -2 -13 7 -13 18 0 19 2
20 16 8 15 -12 16 -9 13 34 -5 58 5 56 51 -10 32 -46 38 -51 65 -46 39 7 38 6
23 39 -19 47 -47 72 -70 66 -17 -4 -20 -2 -15 11 7 18 -8 24 -18 7 -7 -12 -25
-4 -25 11 0 5 6 9 14 9 8 0 18 5 21 10 10 16 -14 40 -39 40 -17 0 -18 2 -6 10
8 5 24 7 34 4 15 -5 18 -3 12 11 -3 9 -9 28 -12 41 -4 15 -13 24 -26 24 -10 0
-16 5 -13 10 4 6 11 8 16 5 5 -4 9 3 9 14 0 12 -4 21 -10 21 -5 0 -10 8 -11
18 0 14 -2 14 -9 -3 -7 -19 -8 -18 -19 7 -5 15 -19 33 -31 40 -19 12 -28 48
-12 48 5 0 13 10 19 23 8 17 7 31 -6 57 -19 41 -61 53 -116 34z"/>
<path d="M6175 8898 c-120 -30 -205 -61 -250 -89 -115 -71 -201 -183 -265
-342 -38 -96 -47 -190 -27 -278 19 -80 103 -249 151 -304 20 -22 36 -43 36
-47 0 -3 23 -22 50 -42 l50 -36 -30 -30 c-17 -17 -27 -30 -22 -30 4 0 13 5 20
12 7 7 12 8 12 3 0 -5 14 4 32 21 17 16 28 24 25 18 -8 -14 47 -39 63 -29 6 3
9 1 8 -7 -2 -8 7 -13 23 -13 14 0 31 -5 38 -12 9 -10 2 -13 -39 -13 -33 0 -49
-4 -45 -10 5 -7 86 -10 236 -9 132 0 227 5 223 10 -3 5 -26 9 -52 10 -26 0
-42 3 -35 5 7 3 10 11 7 18 -3 9 4 11 24 8 17 -2 50 5 76 16 50 23 63 13 19
-13 l-28 -16 30 6 c36 8 75 42 69 60 -3 7 10 22 29 34 30 18 71 59 119 120 10
13 48 89 81 161 60 136 57 274 -12 424 -103 223 -237 339 -441 382 -105 22
-129 24 -175 12z m-65 -46 c0 -4 -5 -13 -12 -20 -17 -17 -2 -15 27 4 22 15 23
14 18 -6 -4 -13 1 -26 12 -34 17 -12 17 -15 2 -37 -21 -29 -22 -46 -2 -29 19
16 25 10 28 -26 2 -23 -2 -29 -18 -29 -11 0 -24 9 -30 20 -11 22 -45 22 -45 0
0 -8 9 -22 19 -32 10 -10 26 -42 35 -72 9 -30 26 -74 37 -98 12 -24 19 -47 15
-50 -3 -3 -8 3 -11 13 -4 10 -11 26 -16 34 -11 17 -32 65 -43 94 -6 19 -7 19
-22 -3 -9 -12 -23 -20 -31 -19 -20 4 -36 -51 -31 -104 2 -24 -1 -39 -9 -42
-16 -6 -17 -36 -2 -36 7 0 10 -18 7 -50 -2 -29 1 -50 7 -50 6 0 2 -5 -8 -11
-12 -7 -15 -15 -9 -22 5 -7 13 -34 16 -60 4 -27 10 -46 13 -43 4 3 12 1 19 -5
10 -8 24 8 60 70 26 45 49 81 51 81 4 0 -3 -14 -110 -204 -35 -62 -58 -117
-62 -146 -3 -25 -10 -52 -16 -60 -27 -44 10 99 44 166 l30 61 -35 36 c-28 27
-38 33 -48 24 -10 -9 -11 -9 -5 3 8 14 -52 -35 -67 -55 -4 -6 -20 -3 -40 7
-29 14 -36 14 -56 0 -12 -8 -22 -10 -22 -4 0 6 -11 1 -24 -11 -20 -17 -22 -25
-13 -36 10 -12 7 -13 -15 -9 l-27 5 21 -41 c26 -52 72 -112 117 -154 l36 -34
-44 33 c-54 41 -124 136 -153 209 -18 44 -23 75 -23 155 0 55 4 122 8 148 l8
48 35 -6 c40 -6 114 -41 114 -54 0 -5 15 -14 33 -21 17 -7 41 -21 52 -31 11
-9 29 -19 40 -21 11 -1 25 -9 31 -17 9 -12 11 -12 11 0 1 8 2 28 3 44 1 17 -2
55 -6 86 -5 41 -2 70 9 103 9 26 12 44 7 41 -5 -3 -30 7 -57 21 -31 17 -62 26
-87 25 -22 -1 -43 4 -47 11 -6 9 -11 9 -22 -1 -10 -8 -17 -8 -22 -2 -11 18
131 146 199 180 35 17 69 31 75 31 6 0 11 5 11 10 0 6 7 10 16 10 8 0 12 5 9
10 -3 6 -1 10 4 10 6 0 11 -4 11 -8z m333 -42 c57 -22 141 -77 181 -119 36
-38 29 -39 -21 -5 -25 17 -44 23 -58 19 -11 -4 -34 -9 -50 -12 -27 -4 -33 -1
-47 29 -9 18 -19 41 -22 51 -4 11 -16 17 -36 17 -27 0 -30 -3 -30 -32 0 -17
-3 -28 -7 -24 -5 4 -8 30 -8 56 0 47 1 49 25 43 14 -3 46 -14 73 -23z"/>
<path d="M3935 8778 c-27 -5 -52 -13 -55 -17 -3 -4 -39 -24 -81 -44 -75 -36
-133 -84 -145 -119 -3 -10 -10 -18 -15 -18 -5 0 -9 -7 -9 -16 0 -13 -7 -15
-36 -11 -29 5 -35 3 -30 -9 3 -9 6 -20 6 -25 0 -5 18 -9 39 -9 36 0 40 3 51
36 27 80 101 135 219 160 204 43 417 -14 477 -128 24 -46 29 -131 9 -162 -9
-14 -22 -26 -29 -26 -14 -1 -51 -50 -36 -50 5 0 10 -5 10 -11 0 -7 -9 -6 -23
4 -22 14 -26 14 -51 -3 -19 -12 -24 -19 -14 -23 24 -9 -5 -25 -66 -36 -84 -15
-107 -14 -100 4 5 11 -1 15 -21 15 -20 0 -26 -4 -21 -15 3 -8 1 -15 -4 -15 -6
0 -10 -4 -10 -10 0 -15 114 -12 192 4 132 28 243 104 282 193 30 68 31 68 75
65 33 -3 41 0 41 13 0 13 -7 15 -44 10 l-43 -7 -17 41 c-20 51 -88 127 -136
150 -102 52 -300 80 -415 59z"/>
<path d="M8055 8706 c-34 -11 -42 -19 -60 -64 -12 -29 -28 -57 -37 -64 -19
-16 -35 -81 -43 -173 -11 -127 -10 -125 -65 -125 -53 0 -53 0 -65 -78 l-7 -44
48 7 c27 3 64 8 82 11 37 6 38 4 13 -37 -10 -17 -17 -38 -15 -47 7 -28 -28
-62 -69 -69 -34 -5 -37 -4 -37 19 0 13 5 29 12 36 9 9 8 12 -4 12 -11 0 -18
10 -20 28 -3 21 -6 15 -12 -24 l-8 -51 -64 -23 -64 -22 0 -144 0 -144 131 0
c115 0 130 2 125 16 -3 9 -6 20 -6 25 0 5 -7 9 -15 9 -8 0 -15 7 -15 16 0 10
-6 14 -14 11 -10 -4 -12 0 -9 14 4 13 0 19 -11 19 -9 0 -16 -4 -16 -9 0 -5 -6
-11 -13 -14 -7 -3 -13 3 -13 13 0 10 3 17 7 15 3 -2 6 12 7 32 1 19 7 41 13
49 6 7 9 19 6 26 -4 8 -6 7 -6 -4 -1 -10 -5 -18 -10 -18 -15 0 -21 32 -13 64
9 32 32 48 32 22 0 -8 5 -18 11 -22 8 -4 9 0 4 15 -6 19 -3 21 32 20 30 -2 32
-3 10 -6 -15 -2 -25 -8 -22 -13 3 -4 15 -6 27 -2 13 3 19 1 15 -6 -4 -5 -1
-13 5 -15 12 -5 -36 -11 -55 -8 -5 1 -7 -4 -5 -11 3 -7 24 -14 49 -16 62 -3
89 -11 89 -23 0 -12 48 -58 88 -86 18 -12 22 -25 22 -64 l0 -49 120 0 c97 0
120 3 120 14 0 8 -10 17 -22 19 l-23 4 23 2 c18 1 22 7 22 32 0 17 -4 28 -10
24 -5 -3 -10 -4 -10 0 0 3 11 10 24 15 15 5 32 26 44 52 29 65 39 70 126 62
42 -4 76 -11 76 -16 0 -5 5 -6 10 -3 6 3 10 1 10 -6 0 -24 13 0 16 31 2 19 -1
29 -8 27 -7 -1 -14 6 -16 16 -2 12 3 17 17 17 18 0 21 -6 21 -37 0 -21 -5 -56
-10 -78 -6 -25 -5 -44 0 -49 17 -17 11 -35 -11 -31 -12 3 -19 0 -16 -8 5 -16
-22 -43 -56 -56 -15 -6 -27 -15 -27 -21 0 -14 17 -13 24 3 5 10 7 10 12 0 4
-9 35 -13 105 -13 l99 0 0 143 0 143 -55 23 -55 23 -1 51 -1 52 -12 -40 c-7
-22 -15 -35 -17 -30 -3 6 -4 4 -2 -3 17 -69 19 -64 -23 -57 -87 14 -84 12 -84
58 0 31 -5 45 -20 55 -12 7 -17 18 -13 28 5 14 17 15 85 9 l79 -6 -3 48 c-3
41 -7 50 -30 61 -20 9 -33 10 -47 3 -30 -16 -35 1 -45 145 -8 109 -19 152 -45
170 -10 7 -22 26 -26 41 -10 42 -35 75 -51 69 -8 -3 -14 -1 -14 4 0 6 -9 10
-20 10 -21 0 -21 0 0 -22 12 -13 16 -24 10 -26 -15 -5 -12 -22 4 -22 7 0 21
-11 30 -25 l16 -25 -40 0 c-33 0 -42 4 -49 23 -7 16 -5 25 7 35 14 11 14 12
-1 12 -11 0 -17 8 -18 23 0 21 -1 21 -10 -3 -6 -14 -12 -40 -13 -59 l-4 -35
-66 -3 -66 -4 -1 28 c0 15 -6 44 -13 63 -12 34 -13 34 -19 10 -3 -14 -4 -35
-1 -47 7 -25 2 -29 -54 -38 -43 -7 -44 -7 -32 15 6 12 25 27 41 34 30 13 30
29 1 19 -10 -3 -5 6 11 19 43 40 38 44 -28 24z"/>
<path d="M4072 8660 c-13 -6 -47 -8 -77 -5 -30 2 -57 0 -60 -5 -3 -6 -15 -10
-26 -10 -13 0 -19 -7 -19 -21 0 -18 2 -20 16 -8 21 18 174 19 174 2 0 -7 -4
-13 -10 -13 -5 0 -10 -9 -10 -20 0 -11 -6 -20 -14 -20 -8 0 -18 -5 -22 -12 -4
-7 -3 -8 4 -4 19 12 92 -14 120 -42 41 -41 39 -58 -10 -89 -39 -25 -51 -27
-137 -26 -74 0 -90 -2 -75 -11 10 -6 55 -11 99 -11 67 0 87 4 125 25 24 14 51
37 59 51 22 39 -2 80 -59 99 -81 28 -78 24 -45 60 17 18 39 36 50 40 17 7 14
9 -12 9 -18 1 -33 6 -33 11 0 12 -7 12 -38 0z"/>
<path d="M5930 6557 c0 -34 7 -50 31 -77 17 -19 26 -26 19 -15 -7 11 4 2 24
-19 36 -39 44 -56 27 -56 -5 0 -13 10 -17 22 -6 21 -7 21 -21 -5 -7 -15 -20
-27 -28 -27 -21 0 -65 -81 -65 -119 0 -18 -7 -39 -15 -47 -8 -9 -15 -19 -15
-24 0 -10 25 -37 40 -42 6 -2 6 -16 -1 -41 -16 -57 8 -108 59 -128 28 -11 28
-21 -4 -59 -22 -26 -26 -38 -21 -72 4 -29 0 -49 -14 -72 -10 -17 -19 -39 -19
-48 0 -13 -8 -18 -31 -18 -49 0 -69 -16 -69 -55 0 -19 5 -35 10 -35 6 0 15
-11 20 -25 8 -21 16 -25 50 -25 36 0 41 -3 54 -32 16 -39 11 -47 -38 -55 -25
-4 -42 -1 -54 9 -20 17 -76 38 -104 38 -27 0 -62 -42 -82 -97 -10 -27 -26 -66
-36 -88 -28 -63 -28 -67 -4 -116 26 -52 38 -59 95 -59 39 0 39 0 39 38 0 31 5
41 25 52 13 7 27 22 31 32 4 13 11 17 22 13 10 -4 51 -15 92 -25 41 -10 107
-30 146 -44 87 -32 117 -32 157 -4 59 40 91 96 48 85 -14 -3 -18 -1 -14 9 3 9
-1 14 -12 14 -14 0 -15 6 -9 33 10 44 7 82 -10 155 -14 61 -14 62 7 67 50 10
131 16 180 13 12 -1 29 2 38 6 14 6 17 -4 23 -61 4 -37 7 -79 6 -93 0 -14 -2
-47 -3 -75 -2 -39 -6 -50 -20 -53 -15 -3 -17 -12 -15 -60 3 -55 4 -56 38 -65
36 -9 304 -6 314 4 4 3 3 20 0 37 -4 20 -14 32 -29 36 -12 3 -44 23 -71 44
-27 22 -55 37 -61 35 -17 -6 -16 6 0 26 8 9 22 45 32 81 11 36 29 90 41 121
16 40 21 67 17 97 -5 34 -3 42 11 42 9 0 16 -6 16 -12 0 -7 5 -5 11 5 13 23
-9 93 -41 130 -25 28 -44 27 -35 -3 5 -15 1 -18 -27 -15 -50 4 -103 21 -129
39 -15 10 -44 16 -84 16 -81 0 -88 7 -58 53 40 64 73 62 144 -6 56 -53 70 -59
109 -45 40 14 73 76 65 121 -6 32 -5 33 46 51 48 18 53 18 64 3 15 -21 51 -22
58 -3 3 8 18 16 34 18 30 3 47 38 19 38 -9 0 -16 5 -16 10 0 6 14 10 30 10 20
0 30 5 30 15 0 8 -7 15 -17 15 -15 0 -15 2 1 19 25 28 11 44 -30 36 -27 -5
-34 -3 -34 10 0 24 -22 27 -72 11 -67 -23 -261 -38 -296 -23 -23 10 -28 16
-21 32 4 11 8 41 8 66 1 37 -4 50 -26 71 -41 37 -65 47 -132 54 -49 6 -65 3
-88 -12 -15 -10 -32 -17 -37 -16 -4 2 -24 -6 -43 -18 -43 -25 -43 -25 -43 5 0
26 -41 55 -77 55 -10 0 -28 16 -41 36 -13 20 -27 32 -34 28 -7 -5 -8 -3 -3 5
7 12 -40 71 -57 71 -4 0 -8 -19 -8 -43z"/>
<path d="M4430 6583 c-8 -4 -32 -24 -53 -45 -21 -21 -42 -36 -47 -33 -11 7
-12 3 -14 -75 -1 -61 -23 -105 -59 -120 -20 -8 -20 -9 -3 -9 17 -1 18 -3 7
-13 -11 -11 -14 -10 -18 0 -3 7 -11 18 -18 25 -10 10 -8 21 12 61 18 36 24 59
20 84 -7 37 -23 62 -41 62 -7 0 -6 -3 2 -8 7 -5 14 -19 17 -32 l4 -23 -24 23
c-13 13 -22 26 -20 30 3 4 -5 10 -17 13 -21 6 -61 -26 -101 -83 l-18 -25 6 43
5 43 -42 -5 c-24 -2 -35 -2 -25 0 9 3 17 9 17 14 0 17 -36 20 -80 7 -50 -14
-57 -29 -59 -114 -1 -66 -18 -103 -46 -103 -26 0 -63 -33 -69 -63 -3 -12 -8
-49 -11 -82 -4 -33 -9 -71 -12 -85 -14 -77 -14 -122 -2 -151 7 -18 12 -52 10
-76 -1 -34 3 -49 20 -68 38 -38 48 -23 47 69 -1 90 8 115 66 181 30 33 37 37
46 25 5 -8 7 -22 4 -30 -8 -19 -9 -179 -1 -186 5 -5 -23 -53 -58 -99 -8 -10
-15 -27 -15 -36 0 -10 -4 -20 -9 -23 -11 -7 5 -84 21 -103 6 -8 9 -44 6 -93
-3 -45 -1 -83 3 -86 12 -7 -1 -34 -18 -34 -8 0 -21 -16 -29 -35 -8 -21 -25
-40 -39 -45 -28 -11 -51 -51 -42 -74 5 -13 23 -16 84 -16 79 1 158 12 170 24
4 4 1 32 -7 64 -16 71 -15 122 6 185 11 32 15 71 12 117 l-4 68 24 -34 c12
-19 20 -38 17 -43 -16 -28 48 -91 93 -91 16 0 102 -79 102 -93 0 -26 -29 -71
-56 -88 -23 -14 -34 -28 -34 -45 0 -22 4 -24 45 -24 36 0 45 3 45 18 0 14 2
14 9 3 7 -11 15 -12 38 -3 15 6 41 13 57 17 23 5 26 9 16 15 -8 5 -12 12 -8
15 3 3 12 -1 20 -9 8 -8 20 -11 27 -7 8 6 5 22 -13 63 -14 31 -30 59 -35 63
-6 3 -11 13 -11 22 0 9 -11 26 -25 39 -14 13 -25 32 -25 43 0 26 -59 81 -87
81 -31 0 -63 34 -63 65 0 14 -9 50 -19 80 -18 52 -19 55 -2 77 10 13 16 30 13
38 -3 8 -1 12 3 7 5 -4 17 0 27 10 19 17 25 78 8 88 -5 3 -10 17 -10 30 0 13
-5 35 -11 49 -9 18 -9 29 -1 38 6 8 14 37 18 66 5 44 10 52 23 46 9 -4 53 -8
99 -9 95 -3 93 -5 107 95 5 39 15 62 31 77 23 21 34 73 15 73 -8 0 -18 47 -25
117 -2 18 0 30 5 28 4 -3 6 -12 3 -19 -3 -8 0 -17 6 -21 7 -4 9 3 6 21 -3 17
0 31 7 36 14 9 -1 9 -23 1z m-308 -602 c12 -1 15 -6 11 -18 -5 -12 -3 -14 7
-8 8 5 11 3 8 -6 -3 -8 -12 -13 -19 -11 -9 2 -7 -4 5 -17 11 -12 16 -24 13
-28 -4 -3 -7 -1 -7 6 0 8 -6 6 -17 -5 -11 -11 -18 -13 -21 -5 -2 6 -10 11 -19
11 -8 0 -13 -6 -10 -12 2 -7 -5 -24 -17 -38 l-21 -25 26 23 c44 39 54 25 15
-21 -14 -16 -29 -26 -34 -23 -5 3 -15 -6 -22 -19 -17 -32 -27 -31 -42 0 -6 14
-16 25 -23 25 -18 0 -11 40 12 66 12 13 19 24 16 24 -3 0 1 7 8 16 7 9 18 26
24 37 10 21 47 36 75 31 8 -1 23 -3 32 -3z"/>
<path d="M8195 6478 c-30 -23 -75 -114 -75 -152 0 -14 -10 -33 -25 -44 -14
-11 -25 -24 -25 -28 0 -5 -14 -15 -30 -22 -28 -13 -33 -12 -61 12 -39 33 -112
37 -129 7 -16 -30 -12 -52 11 -58 17 -5 19 -11 13 -36 -3 -17 -13 -37 -20 -45
-8 -7 -14 -20 -14 -28 0 -24 38 -54 70 -54 24 0 33 -6 40 -26 8 -19 15 -24 28
-19 9 4 26 10 37 12 11 3 38 27 60 55 l40 50 12 -31 c7 -16 21 -35 32 -40 28
-15 23 -75 -6 -79 -33 -5 -52 -44 -59 -124 -4 -40 -14 -86 -24 -103 -10 -16
-20 -55 -24 -86 -3 -31 -17 -81 -31 -110 -21 -46 -22 -54 -9 -57 10 -3 13 -9
9 -20 -17 -39 -35 -107 -35 -128 0 -20 17 -34 40 -34 5 0 16 7 25 17 13 12 19
13 24 4 5 -7 21 -11 37 -9 23 2 30 8 32 31 2 16 -3 48 -12 73 -8 24 -11 44 -5
44 5 0 9 23 9 51 0 41 10 72 49 153 27 55 55 118 62 138 16 48 37 52 96 18 44
-25 48 -31 50 -66 7 -194 13 -248 28 -263 18 -21 19 -35 3 -61 -19 -30 1 -74
34 -78 16 -2 30 -11 33 -22 7 -22 62 -37 78 -21 6 6 21 11 33 11 13 0 26 5 29
10 13 21 -17 78 -56 109 -21 18 -37 36 -34 40 2 5 1 55 -3 112 -9 110 -2 139
30 139 23 0 23 22 1 78 -16 42 -16 45 1 58 27 19 39 94 19 116 -12 14 -13 23
-4 49 13 37 15 79 3 79 -4 0 -14 27 -20 60 -13 62 -46 108 -104 143 -35 22
-38 21 -38 -4 0 -11 -4 -17 -10 -14 -5 3 -10 14 -10 25 0 11 -11 22 -30 28
-16 6 -35 22 -42 36 -6 15 -15 26 -20 26 -5 0 -6 17 -2 37 l7 37 -26 -17 c-20
-13 -27 -14 -27 -4 0 7 -9 20 -19 29 -19 16 -21 16 -46 -4z m281 -385 c3 -10
13 -35 21 -55 14 -34 14 -38 -1 -53 -9 -9 -16 -24 -15 -33 0 -11 2 -12 6 -4 2
6 13 12 24 12 10 0 19 -6 19 -12 -1 -25 -80 -98 -80 -74 0 2 -3 11 -6 19 -4
12 1 15 21 13 l26 -3 -23 24 c-27 29 -68 52 -84 46 -6 -2 -14 6 -17 18 -4 16
1 29 18 45 14 13 25 32 25 42 0 25 8 32 37 32 14 0 26 -7 29 -17z"/>
<path d="M1880 6288 c-19 -5 -43 -18 -53 -29 -10 -10 -27 -19 -39 -19 -12 0
-19 -3 -15 -6 3 -3 21 -6 41 -6 26 0 33 -4 29 -14 -3 -8 2 -23 12 -34 16 -17
16 -20 -1 -44 -18 -29 -13 -46 9 -28 11 9 16 7 24 -11 13 -29 2 -50 -22 -45
-14 2 -32 22 -41 46 -1 1 -9 0 -18 -4 -23 -9 -20 -37 7 -66 13 -14 29 -47 36
-74 7 -27 21 -66 32 -86 10 -20 19 -45 18 -55 0 -11 -5 -7 -12 12 -7 17 -19
41 -29 55 -9 14 -19 40 -23 58 -6 29 -25 46 -25 22 0 -5 -4 -10 -10 -10 -5 0
-10 8 -10 17 0 15 -2 14 -16 -3 -8 -10 -13 -14 -10 -9 2 6 1 17 -5 25 -7 12
-9 11 -9 -5 -1 -19 -1 -19 -11 -1 -9 15 -13 16 -20 5 -5 -8 -9 -9 -9 -3 0 5
-19 11 -42 13 -23 1 -44 4 -46 6 -2 2 -15 -1 -29 -6 -17 -6 -36 -6 -58 2 -17
7 -44 9 -58 5 -22 -5 -27 -12 -27 -39 0 -18 6 -39 13 -46 10 -11 10 -14 0 -18
-8 -3 -13 -21 -13 -43 0 -42 1 -42 109 -70 44 -12 53 -17 98 -58 13 -12 28
-20 33 -17 5 3 11 -3 14 -12 3 -10 2 0 -2 22 -16 94 2 198 39 221 9 5 9 -4 3
-32 -5 -21 -8 -60 -7 -86 1 -27 -2 -48 -7 -48 -13 0 -21 -33 -9 -40 17 -11 20
-110 3 -117 -11 -4 -11 -8 0 -26 17 -28 29 -127 15 -127 -6 0 -8 -4 -5 -9 4
-5 -3 -7 -14 -4 -11 3 -20 9 -20 14 0 4 -20 8 -45 7 -24 0 -43 -4 -40 -8 2 -4
-7 -12 -21 -19 -16 -7 -24 -17 -21 -25 6 -15 -32 -26 -89 -26 l-34 0 0 -55 0
-55 125 0 125 0 6 28 c3 15 19 51 35 80 20 36 27 60 23 76 -5 20 -3 24 13 20
13 -4 24 6 43 40 13 25 26 44 28 41 2 -2 -25 -54 -61 -117 -35 -62 -67 -125
-71 -140 l-6 -28 124 0 c90 0 126 3 130 13 5 9 7 9 12 0 4 -10 72 -13 275 -13
l269 0 0 215 c0 138 -4 215 -10 215 -6 0 -5 8 2 21 11 18 10 23 -14 40 -16 12
-28 25 -28 31 0 5 -9 21 -20 35 -13 16 -18 34 -14 45 7 23 -41 136 -65 156 -9
7 -33 21 -54 33 -31 16 -41 18 -60 7 -28 -15 -68 -11 -84 10 -7 10 -18 34 -23
55 -10 33 -15 38 -33 33 -12 -3 -27 -6 -34 -6 -6 0 -14 -12 -16 -27 -2 -16 -3
-12 -2 8 3 43 -13 84 -48 122 -28 29 -70 34 -137 15z"/>
<path d="M6435 4108 c-27 -5 -61 -8 -75 -7 -79 5 -119 1 -150 -13 -62 -29 -80
-31 -100 -13 -15 14 -31 16 -67 12 -26 -3 -49 -10 -51 -16 -2 -6 -11 -11 -20
-11 -9 0 -57 -10 -107 -22 -91 -21 -135 -44 -128 -65 3 -7 -16 -14 -52 -18
-52 -7 -75 -19 -61 -33 4 -3 32 -1 63 6 35 7 61 8 68 2 6 -5 21 -7 33 -3 13 3
22 1 22 -6 0 -6 -7 -11 -15 -11 -8 0 -15 -4 -15 -9 0 -10 23 -12 117 -11 65 0
71 -10 65 -105 -2 -38 -4 -92 -3 -118 1 -35 -5 -56 -19 -74 -11 -14 -20 -32
-20 -39 0 -7 -11 -21 -24 -30 -29 -18 -43 -68 -26 -89 8 -10 5 -31 -14 -89
-15 -42 -26 -98 -26 -125 0 -46 -2 -49 -32 -57 -27 -8 -38 -22 -67 -79 -19
-39 -38 -77 -43 -85 -32 -57 -34 -71 -23 -126 12 -60 25 -74 68 -74 42 0 67
17 67 46 0 48 25 19 28 -32 5 -82 60 -100 125 -40 37 34 47 56 26 56 -7 0 -5
10 5 25 26 39 77 187 71 203 -5 14 27 139 45 172 5 10 21 15 46 14 22 -1 77
-3 124 -5 47 -1 105 2 130 8 25 6 46 10 47 9 2 -1 -6 -28 -17 -59 -11 -31 -20
-64 -20 -74 0 -10 -11 -42 -25 -71 -14 -30 -25 -67 -25 -82 0 -19 -6 -31 -19
-35 -21 -6 -35 -45 -21 -59 5 -5 6 -22 3 -37 -5 -25 -1 -30 28 -43 110 -46
260 -70 313 -50 36 14 15 65 -42 103 -16 11 -19 18 -10 28 8 10 6 19 -11 37
-18 19 -21 30 -15 67 7 53 33 139 46 156 5 7 7 21 3 32 -4 13 1 24 16 34 12 9
30 30 41 47 15 25 22 29 33 20 18 -15 35 15 35 61 0 25 -3 29 -14 20 -16 -14
-52 -9 -69 8 -10 11 -8 13 8 9 23 -6 45 13 45 38 0 12 -3 14 -13 6 -10 -8 -24
-6 -53 8 -48 24 -120 44 -234 66 -121 23 -116 21 -92 47 11 12 23 33 27 47 3
14 14 36 24 49 l18 23 21 -37 c44 -74 95 -125 124 -125 25 0 68 33 68 52 0 5
20 30 44 56 24 26 49 65 56 87 15 45 29 59 47 44 18 -15 83 8 84 29 0 9 2 29
4 45 2 15 0 25 -5 22 -4 -3 -7 3 -6 12 1 14 -9 16 -64 14 -36 -1 -80 -7 -98
-14 -24 -8 -43 -8 -74 0 -48 13 -64 9 -71 -17 -3 -13 -11 -17 -26 -13 -12 3
-21 1 -21 -6 0 -6 -5 -11 -10 -11 -7 0 -9 19 -5 51 7 59 21 92 36 83 6 -3 9 2
8 12 -2 11 3 30 10 43 7 13 11 36 9 52 -3 16 -1 29 4 29 4 0 8 -11 8 -25 0
-14 5 -25 11 -25 15 0 7 102 -8 108 -7 2 -13 -4 -13 -14 0 -16 -1 -16 -18 -1
-10 10 -23 16 -28 16 -5 -1 -31 -6 -59 -11z m-408 -791 c17 -28 3 -122 -27
-178 -5 -9 -14 -35 -20 -58 -18 -69 -34 -51 -27 34 3 45 1 77 -4 81 -6 3 -8
12 -5 20 8 20 -23 46 -45 39 -10 -4 -19 -3 -19 2 1 21 21 35 59 40 35 5 41 9
41 30 0 20 3 22 19 13 11 -5 23 -16 28 -23z"/>
<path d="M3974 3971 c3 -4 -3 -18 -13 -30 -12 -14 -17 -30 -13 -44 5 -20 4
-20 -11 -8 -17 14 -24 57 -8 47 5 -3 11 3 14 13 7 30 -21 14 -39 -21 -9 -17
-11 -27 -5 -24 6 4 11 1 11 -6 0 -9 -12 -14 -34 -14 -25 0 -43 -9 -67 -32 -18
-18 -38 -32 -45 -32 -8 0 -11 -18 -10 -52 2 -61 -10 -99 -30 -91 -8 3 -17 -2
-20 -11 -9 -22 5 -34 16 -16 8 13 10 12 10 -2 0 -12 -8 -18 -24 -18 -22 0 -23
-3 -19 -43 4 -34 1 -46 -16 -61 -22 -20 -28 -51 -11 -61 13 -8 13 -52 -1 -57
-6 -2 -5 -14 5 -33 l16 -30 -40 -9 c-36 -8 -40 -12 -41 -40 0 -17 -4 -40 -8
-51 -12 -27 5 -45 43 -45 50 0 76 -11 76 -31 0 -20 -15 -26 -25 -9 -3 6 -11
10 -17 10 -16 0 -3 -78 18 -101 18 -20 6 -27 -13 -8 -14 14 -22 -9 -27 -75 -2
-31 -11 -55 -25 -70 -12 -12 -21 -27 -21 -32 0 -5 -9 -17 -20 -27 -37 -32 -20
-57 38 -57 15 0 54 8 87 18 66 20 85 42 85 99 0 33 18 83 30 83 11 0 44 80 43
102 -1 11 -9 29 -19 39 -15 17 -14 21 37 68 l54 49 33 -31 c17 -17 32 -39 32
-49 0 -11 7 -18 19 -18 14 0 21 10 26 33 10 45 24 60 41 46 8 -6 14 -17 14
-23 0 -7 14 -31 31 -54 24 -33 28 -45 20 -61 -6 -11 -11 -35 -11 -53 0 -35 31
-111 49 -122 14 -9 33 -81 37 -139 1 -27 9 -56 18 -66 9 -10 16 -22 16 -28 0
-14 46 -33 80 -33 38 0 55 28 35 58 -11 14 -12 21 -4 24 14 5 -9 78 -24 78 -5
0 -4 6 2 14 13 15 -6 136 -39 251 -17 59 -18 60 -51 58 -28 -2 -30 -1 -10 5
34 10 36 25 7 53 -17 17 -27 43 -34 93 -6 37 -17 76 -25 85 -29 32 -44 76 -40
112 3 21 0 40 -6 43 -24 16 -11 36 24 36 65 0 81 15 93 88 24 144 23 162 -10
175 -17 6 -17 8 -1 36 14 23 15 34 6 53 -10 23 -17 25 -90 26 -43 1 -104 8
-136 17 -68 18 -70 18 -63 6z"/>
<path d="M1938 3820 c-132 -21 -238 -92 -281 -188 -26 -56 -57 -162 -60 -202
-1 -13 -21 -29 -64 -50 -35 -17 -68 -40 -73 -51 -13 -24 -18 -24 70 6 40 14
75 23 77 21 8 -8 -37 -147 -61 -189 -29 -49 -32 -66 -13 -90 11 -16 22 -9 115
63 56 45 102 87 102 94 0 20 24 36 39 27 10 -6 9 -10 -3 -14 -9 -4 -16 -15
-16 -26 0 -11 -31 -48 -75 -88 l-75 -69 33 -12 c48 -17 63 -15 85 13 11 14 49
38 83 54 35 16 114 52 176 80 111 51 143 60 143 41 0 -5 -5 -10 -12 -10 -6 0
1 -13 17 -30 22 -23 38 -30 67 -30 42 0 43 2 27 32 -10 18 -9 20 6 15 9 -4 25
-7 35 -7 10 0 26 -7 34 -15 11 -12 25 -14 50 -9 45 8 61 26 47 53 -6 11 -11
22 -11 26 0 9 78 -33 82 -45 2 -6 20 -12 39 -13 20 -1 44 -8 53 -16 17 -14 60
-11 131 8 22 6 61 13 87 17 26 3 54 12 62 20 8 8 25 14 38 14 13 0 31 11 40
25 17 23 17 25 -15 87 -28 55 -42 68 -102 105 -38 24 -90 51 -115 60 -25 9
-47 19 -50 22 -3 4 -25 7 -48 8 -32 1 -56 11 -88 35 -24 18 -46 40 -49 48 -3
8 -19 30 -36 48 -26 29 -36 33 -79 34 -41 0 -59 7 -102 38 -29 20 -69 42 -88
48 -52 16 -157 22 -222 12z"/>
<path d="M4050 1392 c-86 -43 -104 -142 -37 -209 80 -81 217 -36 217 72 0 24
-2 25 -60 25 -47 0 -60 -3 -60 -15 0 -11 12 -15 45 -15 53 0 59 -17 20 -55
-35 -36 -94 -34 -137 4 -28 25 -33 36 -33 76 0 40 5 51 33 76 34 31 77 38 114
18 13 -7 23 -8 30 -1 7 7 0 16 -20 26 -40 21 -69 20 -112 -2z"/>
<path d="M4284 1286 c-59 -50 -22 -146 56 -146 78 0 115 96 56 146 -15 13 -40
24 -56 24 -16 0 -41 -11 -56 -24z"/>
<path d="M6297 1299 c-11 -6 -25 -27 -33 -45 -12 -29 -12 -40 -2 -62 20 -40
60 -59 98 -45 25 9 30 9 30 -4 0 -31 -21 -53 -50 -53 -16 0 -32 5 -35 10 -3 6
-16 10 -28 10 -21 -1 -21 -2 6 -25 31 -28 53 -31 91 -14 34 16 46 56 46 152 0
79 0 79 -24 73 -14 -3 -28 -2 -31 4 -8 13 -45 12 -68 -1z"/>
<path d="M6543 1295 c-44 -31 -35 -131 12 -149 29 -11 70 -6 94 10 30 22 10
36 -30 20 -20 -7 -35 -7 -45 -1 -25 16 -16 29 34 48 64 25 68 32 39 61 -30 30
-71 34 -104 11z"/>
</g>
</svg>
